<svg id="Layer_1" data-name="Layer 1" xmlns="http://www.w3.org/2000/svg" xmlns:xlink="http://www.w3.org/1999/xlink" viewBox="0 0 400 300"><defs><linearGradient id="linear-gradient" x1="160.99" y1="264.1" x2="183.8" y2="216.14" gradientUnits="userSpaceOnUse"><stop offset="0.01" stop-color="#fff" stop-opacity="0"/><stop offset="1" stop-color="#999"/></linearGradient><linearGradient id="linear-gradient-2" x1="107.78" y1="247.63" x2="167.17" y2="178.71" gradientTransform="translate(-3.41 2.42) rotate(-0.97)" gradientUnits="userSpaceOnUse"><stop offset="0.01" stop-color="#fff" stop-opacity="0"/><stop offset="1" stop-color="#006d9d"/></linearGradient><linearGradient id="linear-gradient-3" x1="217.82" y1="231.18" x2="248.3" y2="204.78" gradientTransform="matrix(1, 0, 0, 1, 0, 0)" xlink:href="#linear-gradient-2"/></defs><title>91-100</title><ellipse cx="200" cy="208.58" rx="61.27" ry="128.21" transform="matrix(0.04, -1, 1, 0.04, -15.88, 400.68)" fill="#ccc"/><ellipse cx="200" cy="196.62" rx="61.27" ry="128.21" transform="translate(-6.2 386.72) rotate(-87.19)" fill="#e6e6e6"/><path d="M244.82,246.69a69.19,69.19,0,0,0,11.56-5c7.83-4.28,13.43-10.41,20.1-16.13,7.1-6.09,13.92-13.91,21.86-18.93L194.76,175.41l-68.93-4.31c-2.74.11-8,4.68-10.5,6.08-4.07,2.28-4.78-10.45-8.87-8.19C96.31,174.58,81.7,189.69,84,202.47c2.17,12.24,17.73,19.93,27.22,25.78,17.82,11,38.2,17.17,58.79,20.3,20.32,3.09,42.56,4.64,62.91,1.1A84.26,84.26,0,0,0,244.82,246.69Z" opacity="0.48" fill="url(#linear-gradient)"/><ellipse cx="199.6" cy="191.11" rx="103.93" ry="49.67" fill="#3a9b7d"/><ellipse cx="199.6" cy="183.11" rx="103.93" ry="49.67" fill="#76ddbd"/><path d="M149.73,163.09l-45.92,27.52a5,5,0,0,1,2.53,2.55c4.89,10.24,14.54,17.51,24,23.35a68.79,68.79,0,0,0,24.93,9.54c22.44-15.37,52.38-35.88,56.41-38.42l7-20.23Z" opacity="0.48" fill="url(#linear-gradient-2)"/><polygon points="246.52 37.33 246.52 87.03 291.27 112.42 291.27 62.72 246.52 37.33" fill="#68e1fd"/><path d="M146.88,212.12l53.68-30.91a1.14,1.14,0,0,0-.27-2.06c-5.42-1-10.83-2-16.28-2.86-3.16-.48-5.14,1.54-7.86,3.19l-29.66,18c-1.24.75-.11,2.7,1.14,1.94L176,182.24a52.75,52.75,0,0,0,5.74-3.49,4.13,4.13,0,0,1,1.06-.64c-1.33.41.12.23,1,.41,5.27,1.14,10.66,1.87,16,2.8l-.27-2.06-53.68,30.91a1.13,1.13,0,0,0,1.14,1.94Z" fill="#fff"/><path d="M199.2,181l7.63,8,.23-1.77L166.77,211a1.13,1.13,0,0,0,1.14,1.94l40.29-23.83a1.14,1.14,0,0,0,.23-1.77l-7.63-8c-1-1-2.59.55-1.59,1.59Z" fill="#fff"/><path d="M221.49,139s-1.5,38.58-2.75,42.58-13,17-44,11.49-2.5-94.4-2.5-94.4" fill="#1b4075"/><path d="M187.31,47.76s47.58,1.77,54,39.58-17.82,65.79-56.64,64.94" fill="#1b4075"/><path d="M130.79,87s-3,14.9-1.76,23-3.12,23.15-.31,34.65,7.2,38.88,20.79,39.72,49.11-5.75,57.27-21.37,30.51-66.59,16.93-89.7S186.34,43.74,164.58,50,132.07,79.08,130.79,87Z" fill="#68e1fd"/><path d="M172.16,48.37s-40.75,13.36-27.41,34.38,73.49-17.19,73.49-17.19S207.66,44.31,172.16,48.37Z" fill="#fff" opacity="0.78"/><path d="M225.41,100.46a18.59,18.59,0,0,0-4.69-.62c-19.15-.12-32.11,18.47-29.45,36.53,1.51,10.24,8.73,19.73,20,18.1,15.87-2.29,29-26.15,26.18-41.08A16.39,16.39,0,0,0,225.41,100.46Z" fill="#68e1fd"/><path d="M225.41,100.46a18.59,18.59,0,0,0-4.69-.62c-19.15-.12-32.11,18.47-29.45,36.53,1.51,10.24,8.73,19.73,20,18.1,15.87-2.29,29-26.15,26.18-41.08A16.39,16.39,0,0,0,225.41,100.46Z" fill="#1b4075" opacity="0.47"/><path d="M229.25,101.89a18.59,18.59,0,0,0-4.69-.62c-19.15-.12-32.11,18.47-29.45,36.53,1.51,10.24,8.73,19.73,20,18.1,15.87-2.29,29-26.15,26.18-41.08A16.39,16.39,0,0,0,229.25,101.89Z" fill="#68e1fd"/><path d="M177.27,124.26c-6.56.22-13.09,0-19-3.15-1.78-.95-3.36,1.75-1.58,2.71,6.41,3.42,13.46,3.82,20.59,3.58C179.28,127.33,179.29,124.19,177.27,124.26Z" fill="#fff"/><path d="M142.4,118.52a25.49,25.49,0,0,1-14-4.41c-1.85-1.24-3.58,1.75-1.74,3A28.91,28.91,0,0,0,142.4,122C144.62,122,144.62,118.56,142.4,118.52Z" fill="#fff"/><ellipse cx="146.13" cy="198.69" rx="3.85" ry="2.57" fill="#fff"/><ellipse cx="146.13" cy="211.15" rx="3.85" ry="2.57" fill="#fff"/><ellipse cx="167.79" cy="212.38" rx="3.85" ry="2.57" fill="#fff"/><path d="M232.6,230c13.63-9.79,33.83-25.23,35.77-26.46L262,201.41,250,196l-40.56,26.31A31.27,31.27,0,0,0,232.6,230Z" opacity="0.48" fill="url(#linear-gradient-3)"/><path d="M216.86,90.07l-2-6.82a6.5,6.5,0,0,1,2.95-7.42h0a6.5,6.5,0,0,1,9.39,3.38l2.4,6.6a6.5,6.5,0,0,1-3,7.93l-.41.22A6.5,6.5,0,0,1,216.86,90.07Z" fill="#fff"/><path d="M266,184.65c.45,1.07,2.47,16,2.34,18.88s-4.54,3.2-5.89,3.08-4-1.34-5.69-1.4-11-1.82-10.72-4.28,1.88-4.84,4-5,7.77.24,7.77.24l-.57-13.49" fill="#ff6753"/><path d="M267.83,199.47a20.7,20.7,0,0,1-13.75-.17,6.29,6.29,0,0,1-3.74-3.41h-.22c-2.1.11-3.72,2.48-4,4.93s9,4.29,10.69,4.35,4.32,1.32,5.67,1.44,5.76-.13,5.91-3a38.31,38.31,0,0,0-.24-4.24Z" fill="#312a87"/><path d="M226.44,82.87s-2.08-3.07-2.08-4.56,1.82.47,1.82.47L225.94,75s1.41,2.2,2.11,3.22,3,5.9,3.38,6.76,4.09,3.23,4.09,3.23-1.06,3.46-2.18,3.7-6.64-4.74-6.64-4.74Z" fill="#f04900"/><path d="M233.34,84.15s-4.1,3.64-3.4,7.78c0,0,5.17,10.27,10.76,12s8.77-9.31,7.24-10.92S233.34,84.15,233.34,84.15Z" fill="#6949c1"/><path d="M220.38,94.8s-1.91-1.76-1.58-2.3S220,87,219.57,86c-.72-1.76-2.55,2.15-2.55,2.15l-.52-6.88s-2,2.18-1.91,3.41-.1,9.46,0,10.07,1.82,5,1.82,5" fill="#f04900"/><path d="M264.1,114.36a36.63,36.63,0,0,1,4.27,16.37c.14,7,.53,63.52.53,63.52s-5.95,3.52-17.24.24c-1.64-.48-3.72-48.65-3.72-48.65L251.81,121" fill="#4739aa"/><path d="M243,201.73c.4,1.09,1.65,16.06,1.38,19s-4.69,3-6,2.78-3.93-1.55-5.61-1.69-10.88-2.37-10.49-4.82,2.12-4.74,4.22-4.76,7.75.63,7.75.63l.12-13.5" fill="#ff6753"/><path d="M248.11,184.72a6.47,6.47,0,0,1,.26-.76,85,85,0,0,1,6-21.23c.71-3.89,1.17-6.44,1.22-6.64,3.33-13.37.84-17,1.65-37.2l-14.49.74s-8,26.4-10.91,50.2c-.7,5.71-1.59,36.8-1.59,36.8s7.16,4.94,15.83,2.15l.29-1.64C244.52,199.69,246.14,192,248.11,184.72Z" fill="#4739aa"/><path d="M241.87,105c-.38-5.59-2.41-8.53-1.12-13.95,4-4.38,11.61-9.67,12.42-9.83l4.28,1a8.34,8.34,0,0,1,6.45,7.9c.23,8.67.56,23.14.2,24.29s-8.85,8.44-21.37,5.26C242.38,114.74,242.21,109.84,241.87,105Z" fill="#a07def"/><path d="M243.47,72s-1.77,13,3,14.09,10.05-4.6,10.3-7.26S249.84,67.26,243.47,72Z" fill="#f04900"/><path d="M245,65.24c-.51.19-4.92,2.84-4.63,4.64s1,5.77,2.31,5.13,1.27-3,2.32-1.24,1.92,3.14,3,2.69a2.54,2.54,0,0,1,2,.09s0,9.37,1.12,8.76,5.66-2.56,7.31-5.4c1-1.79,1.3-5.12,1-7.82a8.46,8.46,0,0,0-1-3.64C257.08,66.59,248.55,63.89,245,65.24Z" fill="#fbb03b"/><path d="M258.42,68.46s5.2,6.72,4.75,15S247.94,93,247.94,93l2-16.41" fill="#fbb03b"/><path d="M215.77,99.57a7.85,7.85,0,0,1,4.61-5c4.07,3.85,9,8,10.68,7.38,2.4-1,7.18-12.13,14-12.7s6.61,8.85,6.61,8.85-11.87,18.32-18.31,18.64c-5.19.26-14.61-8.86-18.31-13.25A18.51,18.51,0,0,1,215.77,99.57Z" fill="#a07def"/><path d="M241,216c-4.33,1-9.06,1.64-12.4-2a6.33,6.33,0,0,1-1.1-1.7l-1,0c-2.1,0-3.83,2.31-4.22,4.76s8.82,4.67,10.49,4.82,4.26,1.51,5.61,1.69,5.76.12,6-2.78a44.45,44.45,0,0,0-.09-4.94A12.23,12.23,0,0,1,241,216Z" fill="#312a87"/><path d="M261.69,132c.09-.63-.87-.9-1-.27-3.63,25.63-17,49.77-15,76.16,0,.64,1,.64,1,0C244.74,181.59,258.07,157.53,261.69,132Z" fill="#a07def"/></svg>