<svg id="Layer_1" data-name="Layer 1" xmlns="http://www.w3.org/2000/svg" xmlns:xlink="http://www.w3.org/1999/xlink" viewBox="0 0 400 300"><defs><linearGradient id="linear-gradient" x1="102.13" y1="163.64" x2="133.38" y2="141.63" gradientUnits="userSpaceOnUse"><stop offset="0" stop-color="#fff" stop-opacity="0"/><stop offset="0.98" stop-color="#0800bf"/></linearGradient><linearGradient id="linear-gradient-2" x1="192.03" y1="106.9" x2="213.4" y2="91.86" xlink:href="#linear-gradient"/><linearGradient id="linear-gradient-3" x1="248.43" y1="192.09" x2="270.01" y2="163.42" xlink:href="#linear-gradient"/><linearGradient id="linear-gradient-4" x1="129.2" y1="261.22" x2="174.13" y2="212.75" xlink:href="#linear-gradient"/><linearGradient id="linear-gradient-5" x1="58.71" y1="215.94" x2="80.08" y2="200.9" xlink:href="#linear-gradient"/></defs><title>61-70</title><path d="M222.82,58.71l156.43,91a10,10,0,0,1-.14,17.31L187.62,274.18a15.77,15.77,0,0,1-15.17.13L25.32,195.18A12,12,0,0,1,25,174.27Z" fill="#aaacf9"/><path d="M153.15,118.28,93.54,155.41l12.32,14.24,64.79-40C164,125.13,158.95,123.88,153.15,118.28Z" opacity="0.32" fill="url(#linear-gradient)"/><path d="M159.85,122.29l9.56,4.6a2.2,2.2,0,0,1,.15,3.88L146.9,144a2.2,2.2,0,0,1-3-.71l-5.51-8.56" fill="#56403d"/><path d="M112.28,97.52,188.53,53.6a3.44,3.44,0,0,1,5.16,3v45.7a2.86,2.86,0,0,1-1.43,2.48L111,151.66a1.84,1.84,0,0,1-2.77-1.6V104.56A8.12,8.12,0,0,1,112.28,97.52Z" fill="#68e1fd"/><path d="M188.52,57.05,114.59,99.59a5.18,5.18,0,0,0-2.6,4.49v34.26a1.87,1.87,0,0,0,2.8,1.62l75.4-43.27a1.85,1.85,0,0,0,.93-1.6V58.56A1.74,1.74,0,0,0,188.52,57.05Z" fill="#fff"/><ellipse cx="157.76" cy="119.85" rx="1.84" ry="1.61" transform="translate(10.23 252.09) rotate(-79.1)" fill="#ab643c"/><ellipse cx="117.6" cy="100.64" rx="0.81" ry="0.87" fill="#659fe4"/><ellipse cx="120.17" cy="99.36" rx="0.81" ry="0.87" fill="#c5e9ff"/><path d="M223.84,73.67,183.7,97.78l19.57,11.53,38.08-22.14C234.65,82.63,229.64,79.27,223.84,73.67Z" opacity="0.32" fill="url(#linear-gradient-2)"/><path d="M259.49,149.48l-49.13,23.75,54.91,37.5,38.08-22.14C296.65,184.05,265.28,155.08,259.49,149.48Z" opacity="0.32" fill="url(#linear-gradient-3)"/><path d="M156.14,183.32l-57.87,36.4,75.29,47.88L223,234.9C216.3,230.36,161.93,188.92,156.14,183.32Z" opacity="0.32" fill="url(#linear-gradient-4)"/><path d="M90.52,182.71,50.38,206.82l19.57,11.53L108,196.21C101.33,191.67,96.32,188.31,90.52,182.71Z" opacity="0.32" fill="url(#linear-gradient-5)"/><path d="M68.88,188.72c.25.4,19.64,11.26,19.64,11.26l13.42-7.53,6.08-3.54-7.48-4.34-12.08-7Z" fill="#967371"/><polygon points="88.52 199.98 88.52 207.5 108.02 196.21 108.02 188.91 88.52 199.98" fill="#56403d"/><polygon points="68.88 188.72 68.88 196.22 88.52 207.5 88.52 199.98 68.88 188.72" fill="#56403d"/><ellipse cx="88.96" cy="188.73" rx="7.49" ry="4.18" fill="#56403d"/><rect x="87.63" y="165.29" width="2.89" height="24.67" rx="1.45" ry="1.45" fill="#6d5351"/><circle cx="89.08" cy="163.85" r="7.82" fill="#ed1c24"/><path d="M89.32,156a10.31,10.31,0,0,1,3.29,7.39,7.56,7.56,0,0,1-5.94,7.84A7.81,7.81,0,1,0,89.32,156Z" fill="#e01b2a"/><path d="M85.66,159.78a6.05,6.05,0,0,0-2.08,5.5,6.42,6.42,0,0,1-.34-4.68C84,157.88,85.66,159.78,85.66,159.78Z" fill="#fff"/><path d="M250.45,117.55c-11.24-3.19-25.8,4.31-35.66,8.82a401.09,401.09,0,0,0-42.47,23.18c-11.45,7-19.4,14.15-22.22,27.87-.49,6.11-.75,12.22,0,14,1.54,4,45.89,43.42,68.06,45.58s-8.19-51.74-5.48-56.05,27-17.86,30.73-16.63,53.93,30.77,57.9,24.64C314,169.28,273.24,124,250.45,117.55Z" fill="#68e1fd"/><path d="M303.48,177.05s-1.72,9.15-9.69,7.49-43.6-30.05-50.31-28.44-33.12,17.13-33.12,17.13l2.38,10.49L245.64,167s38,25.25,50.83,24.4S303.48,177.05,303.48,177.05Z" fill="#68e1fd"/><path d="M221.62,230.37c-3.33-.25-6.48-1.7-9.4-3.24-3.78-2-7.53-4.08-11.26-6.16a197.62,197.62,0,0,1-23.14-15c-5.81-4.4-11.77-8.65-17.45-13.22-3.95-3.18-7.85-6.71-10.59-11-.25,4.45-.28,8.31.26,9.7,1.54,4,45.89,43.42,68.06,45.58,5.65.55,7.88-2.54,8.13-7.52A8.88,8.88,0,0,1,221.62,230.37Z" fill="#68e1fd"/><path d="M303.48,177.05s-1.72,9.15-9.69,7.49-43.6-30.05-50.31-28.44-33.12,17.13-33.12,17.13l2.38,10.49L245.64,167s38,25.25,50.83,24.4S303.48,177.05,303.48,177.05Z" fill="#505a63" opacity="0.52"/><path d="M221.62,230.37c-3.33-.25-6.48-1.7-9.4-3.24-3.78-2-7.53-4.08-11.26-6.16a197.62,197.62,0,0,1-23.14-15c-5.81-4.4-11.77-8.65-17.45-13.22-3.95-3.18-7.85-6.71-10.59-11-.25,4.45-.28,8.31.26,9.7,1.54,4,45.89,43.42,68.06,45.58,5.65.55,7.88-2.54,8.13-7.52A8.88,8.88,0,0,1,221.62,230.37Z" fill="#505a63" opacity="0.52"/><ellipse cx="246.34" cy="134.32" rx="16.92" ry="12.27" fill="#505a63"/><ellipse cx="180.69" cy="173.38" rx="18.23" ry="13.21" fill="#505a63"/><ellipse cx="210.36" cy="161.62" rx="8.75" ry="4.92" fill="#757575"/><path d="M202.42,163.68s1.71-3.76,4.46-4.16,8.21-1.31,10.22.39,1.85,2.62,1.85,2.62a8.89,8.89,0,0,1-7.41,4C206.16,166.8,203.05,164.77,202.42,163.68Z" fill="#494949"/><ellipse cx="210.68" cy="160.17" rx="5.56" ry="4.14" fill="#090502"/><ellipse cx="210.36" cy="156.7" rx="6.41" ry="4.57" fill="#757575"/><path d="M204,156.91c.16,2.43,3,4.36,6.4,4.36s6.41-2,6.41-4.57a3.33,3.33,0,0,0-.18-1C213.78,159.12,208.29,158.63,204,156.91Z" fill="#494949"/><ellipse cx="227.86" cy="154.4" rx="8.75" ry="4.92" fill="#757575"/><path d="M219.92,156.47s1.71-3.76,4.46-4.16,8.21-1.31,10.22.39,1.85,2.62,1.85,2.62a8.89,8.89,0,0,1-7.41,4C223.66,159.58,220.55,157.55,219.92,156.47Z" fill="#494949"/><ellipse cx="228.18" cy="152.95" rx="5.56" ry="4.14" fill="#090502"/><ellipse cx="227.86" cy="149.48" rx="6.41" ry="4.57" fill="#757575"/><path d="M221.45,149.7c.16,2.43,3,4.36,6.4,4.36s6.41-2,6.41-4.57a3.33,3.33,0,0,0-.18-1C231.28,151.9,225.79,151.42,221.45,149.7Z" fill="#494949"/><path d="M191.86,148.36l6.5-3.81a2.3,2.3,0,0,1,2.38,0l.09.05a2.3,2.3,0,0,1-.08,3.94l-6.59,3.76a2.3,2.3,0,0,1-2.37-.06h0A2.3,2.3,0,0,1,191.86,148.36Z" fill="#505a63"/><path d="M208.06,138.73l6.5-3.81a2.3,2.3,0,0,1,2.38,0l.09.05a2.3,2.3,0,0,1-.08,3.94l-6.59,3.76a2.3,2.3,0,0,1-2.37-.06h0A2.3,2.3,0,0,1,208.06,138.73Z" fill="#505a63"/><path d="M234.09,138.44c.38.06,7.86,4.28,7.86,4.28L259.6,132l-8-4.85-17.51,11.27" fill="#090502"/><path d="M234.94,132.3l16.34,9.51s7.09-4.53,6.9-4.75-16-9-16-9Z" fill="#090502"/><polygon points="234.94 130.68 234.94 132.3 237.4 131.8 234.94 130.68" fill="#090502"/><polygon points="259.6 130.39 259.6 132.02 257.6 131.61 259.6 130.39" fill="#090502"/><polygon points="258.18 135.43 258.18 137.05 257.13 137.76 256.79 136.6 258.18 135.43" fill="#090502"/><polygon points="234.09 138.45 234.09 136.82 236.37 137.14 235.38 138.03 234.09 138.45" fill="#090502"/><path d="M234.09,136.82c.38.06,7.86,4.28,7.86,4.28l17.65-10.71-8-4.85-17.51,11.27" fill="#757575"/><path d="M234.94,130.68l16.34,9.51s7.09-4.53,6.9-4.75-16-9-16-9Z" fill="#757575"/><ellipse cx="173.56" cy="178.89" rx="4.06" ry="2.41" fill="#c6172b"/><polyline points="169.5 178.89 169.5 175.96 177.62 175.96 177.62 178.89" fill="#c6172b"/><ellipse cx="173.56" cy="175.96" rx="4.06" ry="2.41" fill="#f62435"/><ellipse cx="174.71" cy="169.65" rx="4.06" ry="2.41" fill="#d38a09"/><polyline points="170.65 169.65 170.65 166.72 178.77 166.72 178.77 169.65" fill="#d38a09"/><ellipse cx="174.71" cy="166.72" rx="4.06" ry="2.41" fill="#f4bd21"/><ellipse cx="187.22" cy="169.65" rx="4.06" ry="2.41" fill="#0071bc"/><polyline points="183.16 169.65 183.16 166.72 191.28 166.72 191.28 169.65" fill="#0071bc"/><ellipse cx="187.22" cy="166.72" rx="4.06" ry="2.41" fill="#29abe2"/><ellipse cx="185.9" cy="177.95" rx="4.06" ry="2.41" fill="#39b54a"/><polyline points="181.84 177.95 181.84 175.01 189.96 175.01 189.96 177.95" fill="#39b54a"/><ellipse cx="185.9" cy="175.01" rx="4.06" ry="2.41" fill="#3ad84a"/><ellipse cx="227.82" cy="80.38" rx="16.13" ry="11.36" fill="#68e1fd"/><ellipse cx="227.83" cy="73.67" rx="12.08" ry="4.95" fill="#974c26"/><path d="M228.64,73.79c1-1.33,1.9-2.73,2.9-4.3,1.28-2,2.48-4.05,3.57-6.16a40.7,40.7,0,0,0,2.61-5.84,48.74,48.74,0,0,0,1.91-6.69c.12-.6.23-1.2.33-1.8,0-.28.05-.25.05-.21s0-.19,0-.52c.11-1.22.19-2.44.2-3.67a30.84,30.84,0,0,0-2.4-12.35,53.25,53.25,0,0,0-8.62,21.09q-.13.68-.24,1.36s-.12.83-.17,1.16L228.69,57q-.09.86-.16,1.73c-.18,2.22-.26,4.46-.25,6.69C228.28,68.21,228.42,71,228.64,73.79Zm5.14-33.34q.44-.5.9-1h0a2,2,0,0,0-.06.87A2.77,2.77,0,0,0,233.78,40.45Z" fill="#999a1c"/><path d="M228.94,74c.08-1.63.12-3.33.12-5.18,0-2.37-.11-4.75-.33-7.11a40.7,40.7,0,0,0-1-6.32,48.74,48.74,0,0,0-2-6.66c-.22-.57-.45-1.13-.69-1.69-.11-.26-.09-.24-.07-.2l-.25-.46c-.57-1.08-1.16-2.16-1.81-3.19a30.84,30.84,0,0,0-8.69-9.09,53.25,53.25,0,0,0,4.14,22.4q.26.64.53,1.27l.48,1.07.51,1q.39.78.8,1.54c1.05,2,2.19,3.89,3.4,5.76C225.63,69.49,227.25,71.77,228.94,74Zm-13.7-30.82q.1-.66.24-1.31h0a2,2,0,0,0,.42.76A2.77,2.77,0,0,0,215.25,43.16Z" fill="#999a1c"/><path d="M229,74.84c-.48-.91-1-1.84-1.61-2.84-.77-1.28-1.59-2.53-2.47-3.73a25.6,25.6,0,0,0-2.56-3.1,30.65,30.65,0,0,0-3.24-2.95l-.92-.69c-.14-.1-.12-.1-.1-.09l-.28-.17c-.66-.4-1.32-.79-2-1.14A19.39,19.39,0,0,0,208.2,58a33.49,33.49,0,0,0,9.47,10.75l.7.51.6.42.61.39.93.57q1.81,1.08,3.7,2C225.78,73.48,227.39,74.19,229,74.84ZM211.68,62.63q-.16-.39-.29-.78h0a1.26,1.26,0,0,0,.47.27A1.74,1.74,0,0,0,211.68,62.63Z" fill="#999a1c"/><path d="M228.64,73.79c1-1.33,1.9-2.73,2.9-4.3,1.28-2,2.48-4.05,3.57-6.16a40.7,40.7,0,0,0,2.61-5.84,48.74,48.74,0,0,0,1.91-6.69c.12-.6.23-1.2.33-1.8,0-.28.05-.25.05-.21s0-.19,0-.52c.11-1.22.19-2.44.2-3.67a30.84,30.84,0,0,0-2.4-12.35,53.25,53.25,0,0,0-8.62,21.09q-.13.68-.24,1.36s-.12.83-.17,1.16L228.69,57q-.09.86-.16,1.73c-.18,2.22-.26,4.46-.25,6.69C228.28,68.21,228.42,71,228.64,73.79Zm5.14-33.34q.44-.5.9-1h0a2,2,0,0,0-.06.87A2.77,2.77,0,0,0,233.78,40.45Z" fill="#999a1c"/><path d="M228.94,74c.08-1.63.12-3.33.12-5.18,0-2.37-.11-4.75-.33-7.11a40.7,40.7,0,0,0-1-6.32,48.74,48.74,0,0,0-2-6.66c-.22-.57-.45-1.13-.69-1.69-.11-.26-.09-.24-.07-.2l-.25-.46c-.57-1.08-1.16-2.16-1.81-3.19a30.84,30.84,0,0,0-8.69-9.09,53.25,53.25,0,0,0,4.14,22.4q.26.64.53,1.27l.48,1.07.51,1q.39.78.8,1.54c1.05,2,2.19,3.89,3.4,5.76C225.63,69.49,227.25,71.77,228.94,74Zm-13.7-30.82q.1-.66.24-1.31h0a2,2,0,0,0,.42.76A2.77,2.77,0,0,0,215.25,43.16Z" fill="#999a1c"/><path d="M229,74.84c-.48-.91-1-1.84-1.61-2.84-.77-1.28-1.59-2.53-2.47-3.73a25.6,25.6,0,0,0-2.56-3.1,30.65,30.65,0,0,0-3.24-2.95l-.92-.69c-.14-.1-.12-.1-.1-.09l-.28-.17c-.66-.4-1.32-.79-2-1.14A19.39,19.39,0,0,0,208.2,58a33.49,33.49,0,0,0,9.47,10.75l.7.51.6.42.61.39.93.57q1.81,1.08,3.7,2C225.78,73.48,227.39,74.19,229,74.84ZM211.68,62.63q-.16-.39-.29-.78h0a1.26,1.26,0,0,0,.47.27A1.74,1.74,0,0,0,211.68,62.63Z" fill="#999a1c"/><polygon points="246.59 115.77 248 118.39 251.61 116.53 250.77 113.84 246.59 115.77" fill="#f4c2ae"/><path d="M253.14,113.6s8.35,6,10.41,11.85-3,12.24-3,12.24" fill="#f7734f"/><polyline points="262.28 201.14 266.47 199.14 264.77 194.7 261.49 196.04" fill="#1e3180"/><path d="M267.68,189.54H263c-.1,1.91-.53,4.25-2.18,5-.65.39-3.18,1.16-4,.85s-3.4-.95-3.71-.71-1.51.95.91,3.12,7.63,3.61,8.33,3.38-.86-4.55,1.09-3.89c2.13.72.9,5.45,1.22,5.83a7,7,0,0,0,2.13.85,16.59,16.59,0,0,0,1.58-.91C268.36,198.53,268,194,267.68,189.54Z" fill="#1e3180"/><polyline points="237.5 211.58 241.6 209.38 239.7 205.03 236.48 206.51" fill="#1e3180"/><path d="M242.93,198.27,237.65,200c0,3-.92,5.18-4,5.9-1.3.3-2.32-.13-3.58-.3a1.92,1.92,0,0,0-1.86.63c-.69.91.13,1.79.85,2.38,2.51,2.07,7.79,3.26,8.48,3s-1.07-4.51.92-3.94c2.16.62,1.15,5.4,1.48,5.77a7,7,0,0,0,2.16.75,16.59,16.59,0,0,0,1.54-1C243.46,208.69,243.47,202.75,242.93,198.27Z" fill="#1e3180"/><path d="M258.64,132.86A223.55,223.55,0,0,1,263.87,160c1.88,14.66,6.07,32.44,5.71,33s-3.7,4.34-11.38,2.42l-8.82-53.14" fill="#bf4225"/><path d="M245.86,144.75s-8.69,17.58-10.62,28.22,0,28.17,0,28.17,6.75,2.84,12.37,1c0,0,.83-26,1.76-28.41s7.33-12.29,7.61-22.58-2.17-16-2.17-16" fill="#bf4225"/><path d="M243.72,132.68c-.48-3.54-.93-7.31.13-10.78a33.83,33.83,0,0,1,5.78-5.22s2.89-3.47,5.51-1.5c2.91,2.18,6.5,15.94,5.71,21.35-.73,5-5,6.15-9.91,7.43a26.72,26.72,0,0,1-5.08.79C245,140.75,244.27,136.73,243.72,132.68Z" fill="#ffb93e"/><path d="M242.22,105.89s.87,9.58,2.55,10.33,4.65-1.27,5.14-2.92,0-1.94-1.71-2-.5-.07-1.54-.47C244.46,110,247.6,104.56,242.22,105.89Z" fill="#ffe4d7"/><path d="M244.78,101.65a11.77,11.77,0,0,1,2.65-.89,6.63,6.63,0,0,1,6,1.32,9.61,9.61,0,0,1,3.14,6c.17,2-.27,4.48-1.95,5.82-2.09,1.67-5.77,3-7.35.52a5.1,5.1,0,0,1-.67-1.3A18.59,18.59,0,0,0,243.4,108a4.17,4.17,0,0,1-.77-4.21A4.28,4.28,0,0,1,244.78,101.65Z" fill="#f7734f"/><path d="M228.67,122.35a1.82,1.82,0,0,1,2-.32l-.2-.38a.5.5,0,0,1,0-.14c-.43-.22-.16-1,.41-.91,1,.16,1.63.27,2.08,1.27a13.65,13.65,0,0,1,.73,2.48,29.36,29.36,0,0,0,4.41,4.17c.5.41-.21,1.11-.71.71l-.2-.16a.55.55,0,0,1-.36.3.53.53,0,0,1-.34.75c.32.31.65.6,1,.91.47.47-.21,1.09-.71.71s-1.12-.83-1.67-1.25c.24.25.5.5.74.76.44.47-.27,1.18-.71.71-1.2-1.31-2.47-2.55-3.77-3.76a13.72,13.72,0,0,1-2.06-.86c-.74-.38-1.76-.91-1.78-1.87A6.53,6.53,0,0,1,228.67,122.35Z" fill="#ffe4d7"/><path d="M226,120.76c.35-.52.74-.53,1.25-.77l0,0-.44-.34a4.22,4.22,0,0,1-1.31-1.33c-.18-.35.13-.91.56-.73a15.46,15.46,0,0,1,3.42,1.85l0,0c1,.58,1.68,2.22,2.12,3,.31.56-.55,1.07-.86.5l-.25-.5a.52.52,0,0,1-.26.19c0,.09.08.17.13.26a.47.47,0,0,1,.06.3.46.46,0,0,1,.06.18c.07.51.5,1.4-.14,1.73a.58.58,0,0,1-.29.06l.81.85a.49.49,0,0,1-.26.83.41.41,0,0,1-.58.35c-1.4-.59-3.44-1.45-4.35-2.76A4,4,0,0,1,226,120.76Z" fill="#ffe4d7"/><path d="M234.31,124.47l7.09,6.25.41-2.88a19.65,19.65,0,0,1,1.58-5c4.64,2.31,7.79,8.19,5.85,12.91-1.72,2.46-4,4.9-6.6,5.24-5.36.7-12.88-9.74-12.88-9.74C230.09,128.6,234.31,124.47,234.31,124.47Z" fill="#f7734f"/><path d="M252.24,102c0-6.67,11.3-7.81,13-1.63a5.5,5.5,0,0,1-5.6,6.89,16.89,16.89,0,0,1-6.54-1.81" fill="#f7734f"/></svg>