<svg id="Layer_1" data-name="Layer 1" xmlns="http://www.w3.org/2000/svg" xmlns:xlink="http://www.w3.org/1999/xlink" viewBox="0 0 400 300"><defs><linearGradient id="linear-gradient" x1="192.28" y1="275.24" x2="216.61" y2="242.45" gradientUnits="userSpaceOnUse"><stop offset="0" stop-color="#fff" stop-opacity="0"/><stop offset="1" stop-color="#d43500"/></linearGradient><linearGradient id="linear-gradient-2" x1="106.85" y1="205.39" x2="122.42" y2="183.25" xlink:href="#linear-gradient"/></defs><title>-</title><polygon points="157.72 106.46 38.39 174.61 234 287.54 354.22 219.26 157.72 106.46" fill="#ffb844"/><polyline points="274.29 241.35 216.66 274.03 161.69 239.83 213.96 213.94" opacity="0.32" fill="url(#linear-gradient)"/><polyline points="163.36 187.61 117.69 216.47 72.03 192.32 124.29 166.43" opacity="0.32" fill="url(#linear-gradient-2)"/><polygon points="269.65 75.57 166.51 14 166.51 100.33 269.65 158.65 269.65 75.57" fill="#68e1fd"/><line x1="174.45" y1="27.81" x2="174.45" y2="99.56" fill="none" stroke="#29abe2" stroke-miterlimit="10"/><line x1="192.27" y1="38.95" x2="192.27" y2="110.71" fill="none" stroke="#29abe2" stroke-miterlimit="10"/><line x1="220.13" y1="55.52" x2="220.13" y2="127.27" fill="none" stroke="#29abe2" stroke-miterlimit="10"/><line x1="240.26" y1="66.45" x2="240.26" y2="138.21" fill="none" stroke="#29abe2" stroke-miterlimit="10"/><line x1="258.28" y1="78.11" x2="258.28" y2="149.87" fill="none" stroke="#29abe2" stroke-miterlimit="10"/><path d="M322.23,180.44a39,39,0,0,0,8.77-3.72c3.62-2.29-3.56-1.66-4.62-1.43S322.23,180.44,322.23,180.44Z" fill="#ffa515"/><path d="M302.19,101.9a37.08,37.08,0,0,1,12-2.32c7.41-.34-6.83,5.51-6.83,5.51" fill="#ffa515"/><ellipse cx="318.7" cy="139.08" rx="26.77" ry="39.93" transform="translate(-21.16 65.55) rotate(-11.37)" fill="#ffa515"/><ellipse cx="312.86" cy="140.96" rx="26.77" ry="40.61" transform="translate(-21.65 64.44) rotate(-11.37)" fill="#fcb632"/><path d="M292.28,109.82,312.86,141V101.75S303.33,96.79,292.28,109.82Z" fill="#68e1fd"/><path d="M312.86,141,340,153.6s3.92-41.58-27.11-52.26Z" fill="#db5db6"/><polygon points="261.19 187.61 314.37 218.16 239.89 261.26 187.34 229.89 261.19 187.61" fill="#d8d5d0"/><polygon points="187.34 217.95 187.34 229.89 199.46 223.92 187.34 217.95" fill="#d8d5d0"/><polygon points="314.37 206.22 314.37 218.16 302.13 212.5 314.37 206.22" fill="#d8d5d0"/><polygon points="261.19 175.67 314.37 206.22 239.89 249.32 187.34 217.95 261.19 175.67" fill="#eaeaea"/><path d="M197.55,212.93l-.15-.74-7.65,1.32s5.65,8.92,9.88,11.75C197.12,221.7,197.53,217.1,197.55,212.93Z" fill="#d8d5d0"/><line x1="256.31" y1="184.24" x2="282.98" y2="199.57" fill="#d8d5d0"/><path d="M255.93,184.89l26.68,15.33a.75.75,0,0,0,.76-1.3l-26.68-15.33a.75.75,0,0,0-.76,1.3Z" fill="#ccc"/><line x1="252.84" y1="186.51" x2="295.75" y2="211.17" fill="#d8d5d0"/><path d="M252.46,187.16l42.91,24.65a.75.75,0,0,0,.76-1.3l-42.91-24.65a.75.75,0,0,0-.76,1.3Z" fill="#ccc"/><line x1="249.37" y1="189.14" x2="292.28" y2="213.8" fill="#d8d5d0"/><path d="M249,189.79l42.91,24.65a.75.75,0,0,0,.76-1.3L249.75,188.5a.75.75,0,0,0-.76,1.3Z" fill="#ccc"/><line x1="245.84" y1="191.32" x2="288.75" y2="215.97" fill="#d8d5d0"/><path d="M245.46,192l42.91,24.65a.75.75,0,0,0,.76-1.3l-42.91-24.65a.75.75,0,0,0-.76,1.3Z" fill="#ccc"/><polygon points="225.15 208.32 237.26 201.35 240.26 203.08 228.12 210.01 225.15 208.32" fill="#68e1fd"/><polygon points="230.68 212.46 252.03 200.17 254.9 202.01 233.69 214.12 230.68 212.46" fill="#68e1fd"/><polygon points="237.26 216.32 250.09 208.94 253.34 210.53 240.26 218 237.26 216.32" fill="#68e1fd"/><polygon points="243.75 219.56 260.69 209.81 263.86 211.46 246.77 221.23 243.75 219.56" fill="#68e1fd"/><polygon points="250.07 223.42 256.31 219.83 259.37 221.5 253.05 225.11 250.07 223.42" fill="#68e1fd"/><polygon points="257.62 227.15 278.97 214.86 281.85 216.7 260.67 228.8 257.62 227.15" fill="#68e1fd"/><line x1="213.4" y1="209.39" x2="240.08" y2="224.72" fill="#d8d5d0"/><path d="M213,210l26.68,15.33a.75.75,0,0,0,.76-1.3l-26.68-15.33A.75.75,0,0,0,213,210Z" fill="#ccc"/><line x1="209.93" y1="211.67" x2="252.84" y2="236.32" fill="#d8d5d0"/><path d="M209.55,212.32,252.46,237a.75.75,0,0,0,.76-1.3L210.31,211a.75.75,0,0,0-.76,1.3Z" fill="#ccc"/><line x1="206.46" y1="214.3" x2="249.37" y2="238.95" fill="#d8d5d0"/><path d="M206.09,214.95,249,239.6a.75.75,0,0,0,.76-1.3l-42.91-24.65a.75.75,0,0,0-.76,1.3Z" fill="#ccc"/><line x1="202.93" y1="216.47" x2="245.84" y2="241.12" fill="#d8d5d0"/><path d="M202.55,217.12l42.91,24.65a.75.75,0,0,0,.76-1.3l-42.91-24.65a.75.75,0,0,0-.76,1.3Z" fill="#ccc"/><polyline points="314.37 208.94 240.26 252.04 187.34 221.23" fill="none" stroke="#ccc" stroke-miterlimit="10" stroke-width="0.5"/><polyline points="314.11 211.67 240 254.77 187.07 223.96" fill="none" stroke="#ccc" stroke-miterlimit="10" stroke-width="0.5"/><polyline points="314.11 215.61 240 258.7 187.07 227.89" fill="none" stroke="#ccc" stroke-miterlimit="10" stroke-width="0.5"/><polyline points="319.26 222.9 327.09 221.69 320.27 228.63" fill="#ffc65a"/><ellipse cx="319.26" cy="225.92" rx="2.33" ry="3.02" fill="#465ca2"/><polygon points="251.49 269.82 320.27 228.63 318.39 223.12 249.69 264.25 251.49 269.82" fill="#465ca2"/><ellipse cx="250.59" cy="267.03" rx="2.33" ry="3.02" fill="#283860"/><path d="M327.09,221.69l-3,.46a1.39,1.39,0,0,1,.79,1.75Z" fill="#465ca2"/><path d="M156.16,182.65l-.91-.69.81-10.83,4.77.17s-.24,4.63.78,5.76,3.88.58,4.15.69,2.18-.3,3,.63-3.1,3.15-5.09,3.47a12.7,12.7,0,0,1-4.09-.14s-.23-2.8-.93-2.58-1,3.15-1,3.15Z" fill="#9c4100"/><path d="M154.2,148.54c-.39,11.33-.81,26.1-.81,26.1s2.59,3.52,9.61,2c.75-.16,2.43-18.22,3.25-27.62A27,27,0,0,0,154.2,148.54Z" fill="#653200"/><path d="M168.59,192l-.91-.69.81-10.83,4.77.17s-.24,4.63.78,5.76,3.88.58,4.15.69,2.18-.3,3,.63-3.1,3.15-5.09,3.47A12.7,12.7,0,0,1,172,191s-.23-2.8-.93-2.58-1,3.15-1,3.15Z" fill="#9c4100"/><path d="M170.64,150.6a28.4,28.4,0,0,0-9.93-2.47c.58,4.24,1.12,7.18,1.21,7.4.23.54,4.59,27.46,4.59,27.46,5.15,2.08,11.24.34,11.24.34s-2.1-21-2.27-24.51q0-.57-.06-1.13A8.26,8.26,0,0,0,170.64,150.6Z" fill="#653200"/><path d="M139,156.86s8.73-7.9,15.23-8.32,15.76,6.32,15,10.24-13.17,12.34-13.17,12.34" fill="#653200"/><path d="M156.82,142.76l-7-4.91a1.48,1.48,0,0,1-.49-1.81l4.93-11a1.48,1.48,0,0,1,2.13-.65l7.77,4.84a1.48,1.48,0,0,1,.53,1.94l-5.74,11A1.48,1.48,0,0,1,156.82,142.76Z" fill="#1784aa"/><path d="M156.2,142.38l-7-4.91a1.48,1.48,0,0,1-.49-1.81l4.93-11a1.48,1.48,0,0,1,2.13-.65l7.77,4.84a1.48,1.48,0,0,1,.53,1.94l-5.74,11A1.48,1.48,0,0,1,156.2,142.38Z" fill="#29abe2"/><polygon points="157.36 141.71 149.53 136.18 154.66 124.77 163.36 130.19 157.36 141.71" fill="#e4f5fd"/><path d="M153.74,129.61c-2.59,1.42-6.64,3-9.36,4.91-.44.3-1.09,1.34-.66,1.19-.18.21,1.6.91,1.43,1.14-.06.08,1.15-.59,1.22-.56h0a4.66,4.66,0,0,0,3.34.4l.45-.33,0,0,.11-.07a.26.26,0,0,1,.08-.08l.07,0a.27.27,0,0,1,.1-.16c.6-.47,1.91-.72,2.05-1.51a1.63,1.63,0,0,0-.19-.6.23.23,0,0,1,0-.31,1.82,1.82,0,0,0-.27-1.38l0,0,.15-.18a17.51,17.51,0,0,0,2-1.64.41.41,0,0,0,.13-.25v0a.38.38,0,0,0,0-.08A.49.49,0,0,0,153.74,129.61Z" fill="#e85454"/><path d="M152.42,132.41c-.19-.5-.48-.52-.93-.33a15.59,15.59,0,0,0-2.58,1.47c-.14.09,0,.31.14.22.51-.35,2.69-2,3.13-1.25s-1,1.2-1.43,1.41l-1.58.84c-.15.08,0,.3.14.22l1-.52a.13.13,0,0,0,0,.08,1.53,1.53,0,0,0,.3.3,1,1,0,0,0-.11.9l0,.06a2.81,2.81,0,0,1-3.44.5c-.13-.1-.31.09-.18.19a3,3,0,0,0,3.86-.59,1.4,1.4,0,0,0,.46-.15,3,3,0,0,0,1.22-.8,1,1,0,0,0,0-1l0,0a.64.64,0,0,0,0-.92A1,1,0,0,0,152.42,132.41Zm-.11,2.32a1.63,1.63,0,0,1-.66.54c-.17.1-.57.38-.74.34-.33-.08-.13-.52,0-.71h0a1.8,1.8,0,0,0,.51-.3l.63-.4.21-.16A.79.79,0,0,1,152.31,134.74Zm-.8-.48c-.36.22-.65.5-1,.11.5-.26,1-.52,1.48-.81a1.2,1.2,0,0,0,.37-.33C152.63,133.67,151.77,134.09,151.51,134.26Z" fill="#653200"/><path d="M146,132.57s1.75.39,1.88,4.06l-1.31,3.25-7.11-3.69S141.16,134.05,146,132.57Z" fill="#88d3d8"/><path d="M162.85,134.28c-.53,1.17-1.06,2.23-1.5,3.43-.33-.79-.63-1.44-1-2.2a.58.58,0,0,0-.06-.07.61.61,0,0,0-1.13.38,5,5,0,0,0,.83,2,.63.63,0,0,0-.16.12c-1,1.14-.78,2.88-.66,4.28a.54.54,0,0,0,.81.43.55.55,0,0,0,.28-.07,4.6,4.6,0,0,0,1.85-2.67C162.71,138.14,163.45,136.17,162.85,134.28Z" fill="#e85454"/><path d="M136.31,134.2l2.57-.76c.64.09,6.2,2.36,8.51,6.32a24.74,24.74,0,0,1,.57,3.67c.21,1.65.38,3.3.46,5a36.15,36.15,0,0,1-.08,5.42c-.08.77-.13,1.16-.26,1.92a3.42,3.42,0,0,1-1,.61c-7.71,2.68-13.37-1.66-13.6-2.28s-.6-9.52-.78-14.81A5.09,5.09,0,0,1,136.31,134.2Z" fill="#88d3d8"/><path d="M143.11,125s1.73,8.71-1.48,9.65-7-2.69-7.26-4.48S138.61,122.13,143.11,125Z" fill="#e85454"/><path d="M141.87,128.52c.1-.15,1.94-.63,2.33-2.19s-1-3.59-4.23-3.89-8.6,1.46-7.77,9.91,9.34,4.82,9.89,2.12A16.18,16.18,0,0,0,141.87,128.52Z" fill="#653200"/><path d="M141.87,128.52s.54,2.89,1.71,4.13,2.12,3.5.68,5.22,0,2.66,2,4.31.78,8.35-6.54,6.71A19.69,19.69,0,0,1,129,142.82s1.88-13.16,3.87-16.25" fill="#653200"/><path d="M147.41,139.88s1.66,5.55,3.31,5.72,4.17-2.28,5.93-5.48a4.65,4.65,0,0,1,5.09,4.45s-5.83,11.82-14.33,8.93" fill="#88d3d8"/><ellipse cx="156.45" cy="132.91" rx="3.42" ry="2.94" transform="translate(-24.19 230.44) rotate(-68.71)" fill="#1784aa"/><polygon points="154.46 132.05 155.38 131.76 155.76 133.06 158.75 131.99 158.88 132.91 155.24 134.24 154.46 132.05" fill="#e4f5fd"/><path d="M116.86,182.2a36.22,36.22,0,0,1-7.52-23.2,26.43,26.43,0,0,1,7.39-18.11c4.31-4.42,10.82-6.6,16.59-3.6,4.79,2.49,7.11,7.26,8.78,12.15,2,5.85,2.68,13.36,9.81,15.17,2.77.7,5.67.22,8.52,0,5-.34,10.21,1.27,11.75,6.57,2.77,9.48-10,17.57-17.15,20.63a33.11,33.11,0,0,1-36.71-7.94Q117.56,183.07,116.86,182.2Z" fill="#7ec971"/><path d="M171.95,171.33c-5.07,9.17-21.58,13.31-30.58,12.85-8.17-.42-13.33-5.41-12.78-13.68.31-4.54,1.75-9.07,1.34-13.64-.69-7.79-8.09-14.18-15.64-12.66a26.65,26.65,0,0,0-5,15.33,36.22,36.22,0,0,0,7.52,23.2q.7.87,1.46,1.7a33.11,33.11,0,0,0,36.71,7.94c7.17-3.06,19.92-11.15,17.15-20.63C172.05,171.59,172,171.47,171.95,171.33Z" fill="#61af51"/><path d="M176,88.85s4.56-22.29,13.71-18.25c9.7,4.28.87,22.65,11.39,28.12,10.19,5.3,7.23-33.46,19-28.89,10.52,4.08,6.59,19.74,6.6,27.74,0,3.7-1.25,17.4,5.95,19.5,12.59,3.67,7.37-34.06,23.6-25.49" fill="none" stroke="#fff" stroke-miterlimit="10"/><ellipse cx="176.05" cy="89.01" rx="1.97" ry="2.38" fill="#fff"/><ellipse cx="256.31" cy="92.11" rx="1.97" ry="2.38" fill="#fff"/><ellipse cx="211.31" cy="78.11" rx="1.97" ry="2.38" fill="#fff"/><ellipse cx="226.82" cy="94.49" rx="1.97" ry="2.38" fill="#fff"/><path d="M81.12,69.7l54-31a2.27,2.27,0,0,1,3.4,2v20a5.45,5.45,0,0,1-2.79,4.76L83.36,94.74a2.27,2.27,0,0,1-3.38-2V71.67A2.27,2.27,0,0,1,81.12,69.7Z" fill="#68e1fd"/><polyline points="84.97 90.48 84.97 102.18 94.73 87.63" fill="#68e1fd"/><line x1="131.42" y1="49.3" x2="102.76" y2="65.28" fill="#68e1fd"/><path d="M130.66,48,102,64c-1.69.94-.18,3.53,1.51,2.59l28.66-16c1.69-.94.18-3.53-1.51-2.59Z" fill="#f2f2f2"/><line x1="132.67" y1="57.29" x2="89.35" y2="81.45" fill="#68e1fd"/><path d="M131.91,56,88.59,80.15c-1.69.94-.18,3.53,1.51,2.59l43.32-24.16c1.69-.94.18-3.53-1.51-2.59Z" fill="#f2f2f2"/><ellipse cx="63.31" cy="113.99" rx="18.9" ry="15.44" transform="translate(-62.06 78.15) rotate(-45)" fill="none" stroke="#0071bc" stroke-miterlimit="10" stroke-width="3"/><path d="M60.74,130.67a6.9,6.9,0,0,1-4.93-.12l-6.11,21.8c1.1,3.31,4.41,1.62,4.41,1.62l6.75-23.37A.75.75,0,0,1,60.74,130.67Z" fill="#2e3192"/></svg>